PERFORMER "John Dahlbäck"
TITLE "Essential Mix (2008-10-04) [TMB]"
FILE "Classic Essential Mix_John Dahlback_2008_10_04.mp3" MP3
 TRACK 01 AUDIO
   PERFORMER "Essential Mix"
   TITLE "Intro"
   INDEX 01 00:00:00
 TRACK 02 AUDIO
   PERFORMER "Rene Amesz"
   TITLE "Virtual Insanity feat. Mitch Crown & Andy Sherman"
   INDEX 01 02:13:14
 TRACK 03 AUDIO
   PERFORMER "Djuma Soundsystem & Flip"
   TITLE "Atilla"
   INDEX 01 09:06:25
 TRACK 04 AUDIO
   PERFORMER "Shlomi Aber"
   TITLE "State Of No One (Shlomi Aber Mix)"
   INDEX 01 11:41:23
 TRACK 05 AUDIO
   PERFORMER "Onionz"
   TITLE "Nothin But Love feat. Snow (Tiger Stripes)"
   INDEX 01 15:05:26
 TRACK 06 AUDIO
   PERFORMER "Hoxton Whores"
   TITLE "Seduction (Dub Mix 2)"
   INDEX 01 19:38:00
 TRACK 07 AUDIO
   PERFORMER "Dave Spoon"
   TITLE "88"
   INDEX 01 23:39:27
 TRACK 08 AUDIO
   PERFORMER "Zoo Brazil"
   TITLE "Topless (Jesper Dahlbäck Remix)"
   INDEX 01 27:41:24
 TRACK 09 AUDIO
   PERFORMER "The Ties"
   TITLE "Mi Amore"
   INDEX 01 34:00:21
 TRACK 10 AUDIO
   PERFORMER "John Dahlbäck"
   TITLE "Everywhere (DONS & DBN Remix)"
   INDEX 01 36:57:10
 TRACK 11 AUDIO
   PERFORMER "John Dahlbäck"
   TITLE "Kaiki"
   INDEX 01 44:08:08
 TRACK 12 AUDIO
   PERFORMER "Style Of Eye"
   TITLE "Galore"
   INDEX 01 49:10:18
 TRACK 13 AUDIO
   PERFORMER "Jaimy & Kenny D"
   TITLE "Keep On Touchin Me (Funkerman Remix)"
   INDEX 01 54:11:03
 TRACK 14 AUDIO
   PERFORMER "Josh Gabriel"
   TITLE "Tone Program (Style Of Eye Remix)"
   INDEX 01 58:28:03
 TRACK 15 AUDIO
   PERFORMER "Ida Engberg & David West"
   TITLE "Supercluster"
   INDEX 01 63:30:15
 TRACK 16 AUDIO
   PERFORMER "John Dahlbäck"
   TITLE "Pyramid (Dirty South Remix)"
   INDEX 01 68:32:25
 TRACK 17 AUDIO
   PERFORMER "Adele"
   TITLE "Hometown Glory (Axwell Remix)"
   INDEX 01 74:35:20
 TRACK 18 AUDIO
   PERFORMER "Tommy Trash"
   TITLE "My Eternity"
   INDEX 01 79:19:06
 TRACK 19 AUDIO
   PERFORMER "ATFC"
   TITLE "Bad Weed"
   INDEX 01 84:17:23
 TRACK 20 AUDIO
   PERFORMER "ATFC"
   TITLE "Praise To Da JB's"
   INDEX 01 88:34:26
 TRACK 21 AUDIO
   PERFORMER "Style Of Eye"
   TITLE "Girls"
   INDEX 01 90:50:28
 TRACK 22 AUDIO
   PERFORMER "Jesper Dahlbäck"
   TITLE "No Shoes"
   INDEX 01 96:23:19
 TRACK 23 AUDIO
   PERFORMER "John Dahlbäck"
   TITLE "Monchichi"
   INDEX 01 99:25:05
 TRACK 24 AUDIO
   PERFORMER "John Dahlbäck"
   TITLE "Hustle Up"
   INDEX 01 104:04:25
 TRACK 25 AUDIO
   PERFORMER "John Dahlbäck & Francesco Diaz & Young Rebels feat. Terri B"
   TITLE "Can't Slow Down (John Dahlbäck Vocal Mix)"
   INDEX 01 110:07:24
 TRACK 26 AUDIO
   PERFORMER "John Dahlbäck feat. Basto"
   TITLE "Out There"
   INDEX 01 114:32:12